<?xml version="1.0" encoding="UTF-8" standalone="no"?>
<!-- Created with Inkscape (http://www.inkscape.org/) -->

<svg
   xmlns:dc="http://purl.org/dc/elements/1.1/"
   xmlns:cc="http://creativecommons.org/ns#"
   xmlns:rdf="http://www.w3.org/1999/02/22-rdf-syntax-ns#"
   xmlns:svg="http://www.w3.org/2000/svg"
   xmlns="http://www.w3.org/2000/svg"
   xmlns:sodipodi="http://sodipodi.sourceforge.net/DTD/sodipodi-0.dtd"
   xmlns:inkscape="http://www.inkscape.org/namespaces/inkscape"
   version="1.1"
   id="svg29"
   xml:space="preserve"
   width="315.02988"
   height="315.18106"
   viewBox="0 0 315.02988 315.18106"
   sodipodi:docname="labsymbol.svg"
   inkscape:version="0.92.2 5c3e80d, 2017-08-06"><metadata
     id="metadata35"><rdf:RDF><cc:Work
         rdf:about=""><dc:format>image/svg+xml</dc:format><dc:type
           rdf:resource="http://purl.org/dc/dcmitype/StillImage" /><dc:title></dc:title></cc:Work></rdf:RDF></metadata><defs
     id="defs33"><clipPath
       clipPathUnits="userSpaceOnUse"
       id="clipPath47"><path
         d="M 24,0 H 818 V 595.2756 H 24 Z"
         id="path45"
         inkscape:connector-curvature="0" /></clipPath></defs><sodipodi:namedview
     pagecolor="#ffffff"
     bordercolor="#666666"
     borderopacity="1"
     objecttolerance="10"
     gridtolerance="10"
     guidetolerance="10"
     inkscape:pageopacity="0"
     inkscape:pageshadow="2"
     inkscape:window-width="1192"
     inkscape:window-height="858"
     id="namedview31"
     showgrid="false"
     inkscape:zoom="2.0369244"
     inkscape:cx="157.51494"
     inkscape:cy="157.59053"
     inkscape:window-x="0"
     inkscape:window-y="0"
     inkscape:window-maximized="0"
     inkscape:current-layer="g37" /><g
     id="g37"
     inkscape:groupmode="layer"
     inkscape:label="labsymbol"
     transform="matrix(1.3333333,0,0,-1.3333333,-458.29667,675.9)"><g
       id="g39" /><g
       id="g41"><g
         id="g43"
         clip-path="url(#clipPath47)"><g
           id="g49"
           transform="matrix(0.7753906,0,0,-0.7760417,384.4315,368.4052)"><path
             d="M 0,8.048828 C 9.073046,12.91038 19.29019,15.01361 29.46962,14.11523 41.11197,13.08775 52.12399,8.201467 60.8712,0.1816406 72.26723,7.887294 85.57013,12.02264 99.18155,12.09082 113.1393,12.16073 126.805,7.953889 138.4579,0 c 8.3936,7.745726 18.9565,12.51533 30.1507,13.61426 10.4401,1.0249 20.9382,-1.19853 30.1507,-6.385744"
             style="fill:none;stroke:#000000;stroke-width:5;stroke-linecap:butt;stroke-linejoin:miter;stroke-miterlimit:4;stroke-dasharray:none;stroke-opacity:1"
             id="path51"
             inkscape:connector-curvature="0" /></g><g
           id="g53"
           transform="matrix(0.7753906,0,0,-0.7760417,379.9003,482.5784)"><path
             d="M 0,32.53937 C 18.48761,31.62567 36.7879,28.3992 54.47329,22.93536 72.24422,17.44509 89.25326,9.739383 105.0992,0 c 15.3898,9.191283 31.8134,16.52899 48.9279,21.86004 18.6475,5.80856 37.9659,9.18948 57.4777,10.05921"
             style="fill:none;stroke:#000000;stroke-width:5;stroke-linecap:butt;stroke-linejoin:miter;stroke-miterlimit:4;stroke-dasharray:none;stroke-opacity:1"
             id="path55"
             inkscape:connector-curvature="0" /></g><g
           id="g57"
           transform="matrix(0.7753906,0,0,-0.7760417,421.4193,464.7752)"><path
             d="M 0,0 H 104.4009"
             style="fill:none;stroke:#000000;stroke-width:5;stroke-linecap:butt;stroke-linejoin:miter;stroke-miterlimit:4;stroke-dasharray:none;stroke-opacity:1"
             id="path59"
             inkscape:connector-curvature="0" /></g><path
           d="m 466.0703,281.5637 c 12.078,5.0205 23.2246,11.8224 33.108,20.1267 9.0357,7.5921 17.0221,16.4474 23.8018,26.3024 6.7644,9.8326 12.1671,20.4515 16.041,31.614 1.9338,5.572 3.4823,11.2761 4.4071,17.1023 1.124,7.0812 1.3145,14.2629 1.5388,21.427 0.2454,7.8341 0.533,15.6673 0.6606,23.5044 0.0879,5.3981 0.0999,10.808 0.1418,16.2293 0.0387,4.9908 0.103,9.9911 0.1934,15.0013 l -8.9048,-15.5118 4.7174,-0.0873 c 0.071,-5.2542 0.0617,-10.5091 -0.028,-15.763 -0.1336,-7.8234 -0.4453,-15.6426 -0.6191,-23.4651 -0.1553,-6.9894 -0.2028,-14.0047 -1.3634,-20.902 -0.9656,-5.7386 -2.682,-11.2979 -4.6934,-16.7277 -3.9779,-10.7383 -9.0677,-20.9471 -15.4294,-30.2688 -6.8054,-9.9719 -15.0118,-18.8881 -24.3509,-26.4783 -9.339,-7.5901 -19.8107,-13.8543 -31.1465,-18.5221 z"
           style="fill:#000000;fill-opacity:1;fill-rule:nonzero;stroke:none"
           id="path61"
           inkscape:connector-curvature="0" /><g
           id="g63"
           transform="matrix(0.7753906,0,0,-0.7760417,464.1447,452.8711)"><path
             d="M 2.483396,220.7451 C 18.05996,214.2757 32.4355,205.5108 45.18182,194.81 c 11.6531,-9.7831 21.9529,-21.194 30.6966,-33.893 8.72382,-12.6702 15.69148,-26.3536 20.6876,-40.7376 2.49391,-7.1799 4.49108,-14.5303 5.68368,-22.03783 1.4496,-9.12473 1.6953,-18.37896 1.9846,-27.61056 0.3164,-10.09503 0.6874,-20.1888 0.852,-30.28751 0.1133,-6.95597 0.1287,-13.92719 0.1828,-20.913 C 105.3189,12.89938 105.4019,6.456027 105.5186,0 l -11.48442,19.9883 6.08402,0.1125 c 0.0916,6.77049 0.0795,13.54198 -0.0362,20.31211 -0.17223,10.08117 -0.57424,20.15683 -0.79842,30.23695 -0.20031,9.00645 -0.26149,18.04622 -1.75829,26.93407 -1.24532,7.39467 -3.4589,14.55837 -6.05298,21.55517 -5.13022,13.8372 -11.69438,26.9923 -19.89885,39.0041 -8.77675,12.8497 -19.36039,24.339 -31.4047,34.1196 C 28.12444,202.0434 14.61946,210.1153 0,216.1303 Z"
             style="fill:none;stroke:#000000;stroke-width:0.25;stroke-linecap:butt;stroke-linejoin:miter;stroke-miterlimit:4;stroke-dasharray:none;stroke-opacity:1"
             id="path65"
             inkscape:connector-curvature="0" /></g><path
           d="m 456.3845,282.7442 c -12.2077,4.8056 -23.469,11.5197 -33.4025,19.8373 -9.1275,7.6426 -17.1184,16.6288 -23.9942,26.5365 -6.6521,9.5854 -12.1342,19.8824 -15.67,30.8873 -2.1272,6.6208 -3.5289,13.447 -4.4479,20.3398 -0.8563,6.4222 -1.2926,12.8911 -1.4806,19.3671 -0.2235,7.7008 -0.096,15.4057 0.004,23.1088 0.1334,10.2476 0.2188,20.4957 0.2562,30.7441 l 4.0322,0.008 c -0.2664,-10.2925 -0.4375,-20.5873 -0.5134,-30.8831 -0.0577,-7.8222 -0.0604,-15.6456 0.1579,-23.4651 0.1953,-6.9927 0.5681,-13.9883 1.6413,-20.902 1.2221,-7.8727 3.337,-15.5611 6.2374,-22.9481 3.3992,-8.6577 7.827,-16.8145 13.0805,-24.3705 6.8916,-9.9122 15.1786,-18.7671 24.4993,-26.4343 5.5464,-4.5624 11.4386,-8.6867 17.6234,-12.3356 l 2.4677,4.7485 9.5084,-14.2382 z"
           style="fill:#000000;fill-opacity:1;fill-rule:nonzero;stroke:none"
           id="path67"
           inkscape:connector-curvature="0" /><g
           id="g69"
           transform="matrix(-0.7753906,0,0,-0.7760417,456.3845,453.5726)"><path
             d="m 0,220.1279 c 15.74396,-6.1925 30.26729,-14.8441 43.07831,-25.5621 11.77141,-9.8482 22.07715,-21.4278 30.94464,-34.1947 8.57904,-12.3516 15.64913,-25.6203 20.20909,-39.801 2.74343,-8.5317 4.55121,-17.3278 5.73644,-26.20979 1.10432,-8.27559 1.66692,-16.61131 1.90942,-24.95627 0.2883,-9.9232 0.1239,-19.85161 -0.005,-29.77775 C 101.7003,26.42137 101.5901,13.2157 101.542,0.00974655 L 96.3418,0 c 0.34349,13.26291 0.56421,26.52871 0.66211,39.7957 0.07438,10.07968 0.07787,20.16078 -0.20373,30.23695 -0.25182,9.0107 -0.7326,18.0251 -2.11669,26.93408 -1.57605,10.14467 -4.30368,20.05197 -8.04418,29.57077 -4.38394,11.1562 -10.09428,21.6669 -16.86956,31.4035 -8.88796,12.7728 -19.57544,24.1831 -31.5961,34.063 -7.15306,5.8791 -14.75207,11.1936 -22.72844,15.8956 l -3.18251,-6.1189 z"
             style="fill:none;stroke:#000000;stroke-width:0.25;stroke-linecap:butt;stroke-linejoin:miter;stroke-miterlimit:4;stroke-dasharray:none;stroke-opacity:1"
             id="path71"
             inkscape:connector-curvature="0" /></g><path
           d="m 424.524,432.0326 c 1.8953,0.0556 3.2296,-0.1263 3.3681,-0.1455 1.2326,-0.1697 2.0837,-1.313 1.9143,-2.5463 -0.1696,-1.2334 -1.3107,-2.0844 -2.5443,-1.9159 -0.0694,0.009 -7.1258,0.8606 -11.2431,-2.7404 -2.084,-1.8226 -3.1588,-4.6052 -3.1501,-8.2454 v -0.0728 c -10e-4,-0.0392 -0.0619,-4.0068 2.9078,-7.0814 2.5013,-2.5901 6.4917,-3.8909 11.8004,-3.8802 h 37.4369 c 1.2438,0 2.2534,-1.0105 2.2534,-2.2554 0,-1.2451 -1.0096,-2.2553 -2.2534,-2.2553 h -37.4369 c -6.5859,-0.0107 -11.6371,1.7327 -15.0232,5.2383 -4.1516,4.2987 -4.1799,9.6749 -4.1677,10.331 -0.006,4.9895 1.5489,8.9021 4.6524,11.6164 3.5704,3.1222 8.3266,3.8604 11.4854,3.9529 z"
           style="fill:#005493;fill-opacity:1;fill-rule:nonzero;stroke:none"
           id="path73"
           inkscape:connector-curvature="0" /><path
           d="m 502.5255,412.5218 c -1.411,0.0429 -2.3928,-0.0827 -2.4958,-0.0971 -1.2295,-0.1693 -2.1038,-1.2913 -1.9384,-2.5221 0.1648,-1.2308 1.314,-2.0998 2.5442,-1.9401 0.0487,0.006 4.7912,0.601 7.5116,-1.7946 1.3435,-1.1828 1.9928,-2.9419 1.9869,-5.3595 v -0.0728 c 10e-4,-0.0252 0.0346,-2.5912 -1.89,-4.5835 -1.6426,-1.7008 -4.2786,-2.5464 -7.8508,-2.5464 -0.018,0 -0.0302,0 -0.0485,0 l -67.3136,0.0728 c -1.2428,0 -2.252,-1.0115 -2.2534,-2.2554 -10e-4,-1.2451 1.0096,-2.2539 2.2534,-2.2554 l 67.2894,-0.0727 c 0.022,0 0.0507,0 0.0727,0 4.8368,0 8.5738,1.3159 11.0978,3.9287 3.0904,3.1996 3.1578,7.1957 3.15,7.7847 0.005,3.7456 -1.1825,6.6948 -3.5377,8.7547 -2.6765,2.3411 -6.226,2.8871 -8.5778,2.9587 z"
           style="fill:#005493;fill-opacity:1;fill-rule:nonzero;stroke:none"
           id="path75"
           inkscape:connector-curvature="0" /><g
           id="g77"
           transform="matrix(0.7753906,0,0,-0.7760417,344.9034,505.8775)"><path
             d="m 257.5699,44.192 c 58.9226,58.9227 58.9226,154.4552 0,213.3779 -58.9227,58.9226 -154.4552,58.9226 -213.3779,0 -58.92267,-58.9227 -58.92267,-154.4552 0,-213.3779 58.9227,-58.92267 154.4552,-58.92267 213.3779,0 z"
             style="fill:none;stroke:#d6d5d5;stroke-width:3;stroke-linecap:butt;stroke-linejoin:miter;stroke-miterlimit:4;stroke-dasharray:none;stroke-opacity:1"
             id="path79"
             inkscape:connector-curvature="0" /></g></g></g></g></svg>